<mxfile host="app.diagrams.net" modified="2025-07-28T21:15:00.000Z" agent="5.0" etag="security456" version="24.6.4" type="device">
  <diagram name="Security-Details" id="security-details">
    <mxGraphModel dx="1422" dy="794" grid="1" gridSize="10" guides="1" tooltips="1" connect="1" arrows="1" fold="1" page="1" pageScale="1" pageWidth="1400" pageHeight="900" math="0" shadow="0">
      <root>
        <mxCell id="0" />
        <mxCell id="1" parent="0" />

        <!-- Security Features Box -->
        <mxCell id="security-features-box" value="🔒 Security Features" style="rounded=1;whiteSpace=wrap;html=1;fillColor=#FFEBEE;strokeColor=#C62828;fontStyle=1;fontSize=14;fontColor=#B71C1C;verticalAlign=top;spacingTop=10;" vertex="1" parent="1">
          <mxGeometry x="1100" y="150" width="200" height="280" as="geometry" />
        </mxCell>

        <mxCell id="security-features-text" value="✅ AWS Shield Standard (Free)&#xa;• DDoS Protection Layer 3/4&#xa;• Always-on monitoring&#xa;• Automatic mitigation&#xa;&#xa;🛡️ AWS WAF v2 (Optional)&#xa;• Rate limiting (2000 req/5min)&#xa;• SQL injection protection&#xa;• XSS prevention&#xa;• Known bad IPs blocking&#xa;• Custom geo-blocking&#xa;&#xa;🔐 IAM Role-Based Access&#xa;• No secrets stored&#xa;• Temporary credentials&#xa;• Least privilege principle&#xa;• Automatic rotation&#xa;&#xa;🔒 Lambda Security&#xa;• No direct internet access&#xa;• API Gateway only entry&#xa;• Private execution environment&#xa;&#xa;📧 SES DMARC Compliance&#xa;• Verified sender domain&#xa;• Email authentication&#xa;• Anti-spoofing protection" style="text;html=1;strokeColor=none;fillColor=none;align=left;verticalAlign=top;whiteSpace=wrap;rounded=0;fontSize=9;fontColor=#B71C1C;" vertex="1" parent="1">
          <mxGeometry x="1110" y="180" width="180" height="240" as="geometry" />
        </mxCell>

        <!-- Business Rules Box -->
        <mxCell id="business-rules-box" value="📋 Business Rules" style="rounded=1;whiteSpace=wrap;html=1;fillColor=#E8F5E8;strokeColor=#2E7D32;fontStyle=1;fontSize=14;fontColor=#1B5E20;verticalAlign=top;spacingTop=10;" vertex="1" parent="1">
          <mxGeometry x="1100" y="450" width="200" height="200" as="geometry" />
        </mxCell>

        <mxCell id="business-rules-text" value="🚫 Duplicate Vote Prevention&#xa;• Judge-team combination check&#xa;• Warning dialog with details&#xa;• Overwrite confirmation required&#xa;• Atomic vote replacement&#xa;&#xa;📝 Enhanced Comments&#xa;• Auto-expanding textarea&#xa;• Multi-line support&#xa;• Form reset handling&#xa;&#xa;📊 Real-time Scoring&#xa;• Sum of Yes votes&#xa;• Judge percentage calculation&#xa;• Live leaderboard updates&#xa;&#xa;📧 Email Confirmations&#xa;• Vote submission receipts&#xa;• Professional HTML templates&#xa;• Judge notification system&#xa;&#xa;🎯 Team Management&#xa;• Problem statements&#xa;• Success criteria&#xa;• Dynamic team details" style="text;html=1;strokeColor=none;fillColor=none;align=left;verticalAlign=top;whiteSpace=wrap;rounded=0;fontSize=9;fontColor=#1B5E20;" vertex="1" parent="1">
          <mxGeometry x="1110" y="480" width="180" height="160" as="geometry" />
        </mxCell>

        <!-- Monitoring & Compliance Box -->
        <mxCell id="monitoring-box" value="📊 Monitoring & Compliance" style="rounded=1;whiteSpace=wrap;html=1;fillColor=#FFF3E0;strokeColor=#F57C00;fontStyle=1;fontSize=14;fontColor=#E65100;verticalAlign=top;spacingTop=10;" vertex="1" parent="1">
          <mxGeometry x="1100" y="670" width="200" height="180" as="geometry" />
        </mxCell>

        <mxCell id="monitoring-text" value="📈 CloudWatch Metrics&#xa;• API Gateway requests/errors&#xa;• Lambda execution metrics&#xa;• DynamoDB performance&#xa;• WAF blocked requests&#xa;&#xa;🔍 Security Monitoring&#xa;• Failed authentication attempts&#xa;• Rate limit violations&#xa;• Suspicious IP patterns&#xa;• Email delivery status&#xa;&#xa;📋 Compliance Features&#xa;• Audit trail in CloudTrail&#xa;• Data encryption at rest&#xa;• HTTPS encryption in transit&#xa;• GDPR-ready data handling&#xa;&#xa;⚡ Performance Optimization&#xa;• Serverless auto-scaling&#xa;• Pay-per-use pricing&#xa;• Sub-second response times&#xa;• Global edge locations" style="text;html=1;strokeColor=none;fillColor=none;align=left;verticalAlign=top;whiteSpace=wrap;rounded=0;fontSize=9;fontColor=#E65100;" vertex="1" parent="1">
          <mxGeometry x="1110" y="700" width="180" height="140" as="geometry" />
        </mxCell>

        <!-- Security Flow Diagram -->
        <mxCell id="security-flow-title" value="🔒 Security Flow" style="text;html=1;strokeColor=none;fillColor=none;align=center;verticalAlign=middle;whiteSpace=wrap;rounded=0;fontSize=16;fontStyle=1;fontColor=#C62828;" vertex="1" parent="1">
          <mxGeometry x="50" y="100" width="200" height="30" as="geometry" />
        </mxCell>

        <!-- Flow Steps -->
        <mxCell id="flow-step1" value="1. Internet Request" style="rounded=1;whiteSpace=wrap;html=1;fillColor=#FFCDD2;strokeColor=#C62828;fontColor=#B71C1C;fontSize=10;" vertex="1" parent="1">
          <mxGeometry x="50" y="140" width="100" height="40" as="geometry" />
        </mxCell>

        <mxCell id="flow-step2" value="2. Shield DDoS Check" style="rounded=1;whiteSpace=wrap;html=1;fillColor=#FFCDD2;strokeColor=#C62828;fontColor=#B71C1C;fontSize=10;" vertex="1" parent="1">
          <mxGeometry x="170" y="140" width="100" height="40" as="geometry" />
        </mxCell>

        <mxCell id="flow-step3" value="3. WAF Rules Check" style="rounded=1;whiteSpace=wrap;html=1;fillColor=#FFCDD2;strokeColor=#C62828;fontColor=#B71C1C;fontSize=10;" vertex="1" parent="1">
          <mxGeometry x="290" y="140" width="100" height="40" as="geometry" />
        </mxCell>

        <mxCell id="flow-step4" value="4. API Gateway" style="rounded=1;whiteSpace=wrap;html=1;fillColor=#C8E6C9;strokeColor=#2E7D32;fontColor=#1B5E20;fontSize=10;" vertex="1" parent="1">
          <mxGeometry x="410" y="140" width="100" height="40" as="geometry" />
        </mxCell>

        <mxCell id="flow-step5" value="5. Lambda (Private)" style="rounded=1;whiteSpace=wrap;html=1;fillColor=#C8E6C9;strokeColor=#2E7D32;fontColor=#1B5E20;fontSize=10;" vertex="1" parent="1">
          <mxGeometry x="530" y="140" width="100" height="40" as="geometry" />
        </mxCell>

        <mxCell id="flow-step6" value="6. IAM Role Auth" style="rounded=1;whiteSpace=wrap;html=1;fillColor=#FFE0B2;strokeColor=#F57C00;fontColor=#E65100;fontSize=10;" vertex="1" parent="1">
          <mxGeometry x="650" y="140" width="100" height="40" as="geometry" />
        </mxCell>

        <mxCell id="flow-step7" value="7. AWS Services" style="rounded=1;whiteSpace=wrap;html=1;fillColor=#FFE0B2;strokeColor=#F57C00;fontColor=#E65100;fontSize=10;" vertex="1" parent="1">
          <mxGeometry x="770" y="140" width="100" height="40" as="geometry" />
        </mxCell>

        <!-- Flow Arrows -->
        <mxCell id="arrow1" value="" style="endArrow=classic;html=1;rounded=0;strokeColor=#666666;strokeWidth=2;" edge="1" parent="1" source="flow-step1" target="flow-step2">
          <mxGeometry width="50" height="50" relative="1" as="geometry">
            <mxPoint x="150" y="160" as="sourcePoint" />
            <mxPoint x="170" y="160" as="targetPoint" />
          </mxGeometry>
        </mxCell>

        <mxCell id="arrow2" value="" style="endArrow=classic;html=1;rounded=0;strokeColor=#666666;strokeWidth=2;" edge="1" parent="1" source="flow-step2" target="flow-step3">
          <mxGeometry width="50" height="50" relative="1" as="geometry">
            <mxPoint x="270" y="160" as="sourcePoint" />
            <mxPoint x="290" y="160" as="targetPoint" />
          </mxGeometry>
        </mxCell>

        <mxCell id="arrow3" value="" style="endArrow=classic;html=1;rounded=0;strokeColor=#666666;strokeWidth=2;" edge="1" parent="1" source="flow-step3" target="flow-step4">
          <mxGeometry width="50" height="50" relative="1" as="geometry">
            <mxPoint x="390" y="160" as="sourcePoint" />
            <mxPoint x="410" y="160" as="targetPoint" />
          </mxGeometry>
        </mxCell>

        <mxCell id="arrow4" value="" style="endArrow=classic;html=1;rounded=0;strokeColor=#666666;strokeWidth=2;" edge="1" parent="1" source="flow-step4" target="flow-step5">
          <mxGeometry width="50" height="50" relative="1" as="geometry">
            <mxPoint x="510" y="160" as="sourcePoint" />
            <mxPoint x="530" y="160" as="targetPoint" />
          </mxGeometry>
        </mxCell>

        <mxCell id="arrow5" value="" style="endArrow=classic;html=1;rounded=0;strokeColor=#666666;strokeWidth=2;" edge="1" parent="1" source="flow-step5" target="flow-step6">
          <mxGeometry width="50" height="50" relative="1" as="geometry">
            <mxPoint x="630" y="160" as="sourcePoint" />
            <mxPoint x="650" y="160" as="targetPoint" />
          </mxGeometry>
        </mxCell>

        <mxCell id="arrow6" value="" style="endArrow=classic;html=1;rounded=0;strokeColor=#666666;strokeWidth=2;" edge="1" parent="1" source="flow-step6" target="flow-step7">
          <mxGeometry width="50" height="50" relative="1" as="geometry">
            <mxPoint x="750" y="160" as="sourcePoint" />
            <mxPoint x="770" y="160" as="targetPoint" />
          </mxGeometry>
        </mxCell>

        <!-- Cost Analysis Box -->
        <mxCell id="cost-box" value="💰 Cost Analysis" style="rounded=1;whiteSpace=wrap;html=1;fillColor=#E3F2FD;strokeColor=#1976D2;fontStyle=1;fontSize=14;fontColor=#0D47A1;verticalAlign=top;spacingTop=10;" vertex="1" parent="1">
          <mxGeometry x="50" y="250" width="300" height="200" as="geometry" />
        </mxCell>

        <mxCell id="cost-text" value="🆓 Current Setup (Free Tier Eligible):&#xa;• AWS Shield Standard: $0&#xa;• Lambda: ~$0.20/month (low usage)&#xa;• DynamoDB: ~$1-5/month&#xa;• API Gateway: ~$3.50/month&#xa;• SES: ~$0.10/month&#xa;• S3: ~$0.50/month&#xa;• Total: ~$5-10/month&#xa;&#xa;💰 Enhanced Security (Optional):&#xa;• AWS WAF v2: ~$5/month + $0.60/million requests&#xa;• Shield Advanced: $3,000/month (enterprise)&#xa;• CloudFront CDN: ~$10-50/month&#xa;• Enhanced monitoring: ~$5-15/month&#xa;&#xa;📊 Hackathon Usage Estimate:&#xa;• 50 judges × 10 teams × 7 criteria = 3,500 votes&#xa;• ~1,000 API calls total&#xa;• Estimated cost: <$2 for entire event" style="text;html=1;strokeColor=none;fillColor=none;align=left;verticalAlign=top;whiteSpace=wrap;rounded=0;fontSize=10;fontColor=#0D47A1;" vertex="1" parent="1">
          <mxGeometry x="60" y="280" width="280" height="160" as="geometry" />
        </mxCell>

        <!-- Performance Metrics Box -->
        <mxCell id="performance-box" value="⚡ Performance Metrics" style="rounded=1;whiteSpace=wrap;html=1;fillColor=#F3E5F5;strokeColor=#7B1FA2;fontStyle=1;fontSize=14;fontColor=#4A148C;verticalAlign=top;spacingTop=10;" vertex="1" parent="1">
          <mxGeometry x="400" y="250" width="300" height="200" as="geometry" />
        </mxCell>

        <mxCell id="performance-text" value="🚀 Response Times:&#xa;• API Gateway: <100ms&#xa;• Lambda cold start: <1s&#xa;• Lambda warm: <200ms&#xa;• DynamoDB queries: <10ms&#xa;• Email sending: <2s&#xa;• Total user experience: <3s&#xa;&#xa;📈 Scalability:&#xa;• Concurrent Lambda executions: 1000&#xa;• API Gateway: 10,000 req/sec&#xa;• DynamoDB: 40,000 read/write units&#xa;• Auto-scaling: Automatic&#xa;&#xa;🔄 Availability:&#xa;• SLA: 99.95% (API Gateway)&#xa;• Multi-AZ: Automatic&#xa;• Disaster recovery: Built-in&#xa;• Backup: Point-in-time recovery&#xa;&#xa;📊 Capacity Planning:&#xa;• Expected load: 50 concurrent users&#xa;• Peak capacity: 500 concurrent users&#xa;• Headroom: 10x current requirements" style="text;html=1;strokeColor=none;fillColor=none;align=left;verticalAlign=top;whiteSpace=wrap;rounded=0;fontSize=10;fontColor=#4A148C;" vertex="1" parent="1">
          <mxGeometry x="410" y="280" width="280" height="160" as="geometry" />
        </mxCell>

        <!-- Deployment Process Box -->
        <mxCell id="deployment-box" value="🚀 Deployment Process" style="rounded=1;whiteSpace=wrap;html=1;fillColor=#FFF8E1;strokeColor=#F9A825;fontStyle=1;fontSize=14;fontColor=#F57F17;verticalAlign=top;spacingTop=10;" vertex="1" parent="1">
          <mxGeometry x="750" y="250" width="300" height="200" as="geometry" />
        </mxCell>

        <mxCell id="deployment-text" value="🛠️ Infrastructure as Code:&#xa;• SAM template (YAML)&#xa;• CloudFormation stack&#xa;• Version controlled&#xa;• Repeatable deployments&#xa;&#xa;📦 Build Process:&#xa;• sam build (Python packaging)&#xa;• Dependency resolution&#xa;• Asset optimization&#xa;• Template validation&#xa;&#xa;🚀 Deployment Steps:&#xa;• sam deploy --guided&#xa;• CloudFormation changeset&#xa;• Rolling updates&#xa;• Zero-downtime deployment&#xa;&#xa;🔄 CI/CD Ready:&#xa;• GitHub Actions compatible&#xa;• Automated testing&#xa;• Environment promotion&#xa;• Rollback capabilities&#xa;&#xa;📋 Post-Deployment:&#xa;• Health checks&#xa;• Monitoring setup&#xa;• Log aggregation&#xa;• Performance baselines" style="text;html=1;strokeColor=none;fillColor=none;align=left;verticalAlign=top;whiteSpace=wrap;rounded=0;fontSize=10;fontColor=#F57F17;" vertex="1" parent="1">
          <mxGeometry x="760" y="280" width="280" height="160" as="geometry" />
        </mxCell>

      </root>
    </mxGraphModel>
  </diagram>
</mxfile>
